<?xml version="1.0" encoding="UTF-8" standalone="no"?><!DOCTYPE svg PUBLIC "-//W3C//DTD SVG 1.1//EN" "http://www.w3.org/Graphics/SVG/1.1/DTD/svg11.dtd"><svg width="100%" height="100%" viewBox="0 0 400 400" version="1.1" xmlns="http://www.w3.org/2000/svg" xmlns:xlink="http://www.w3.org/1999/xlink" xml:space="preserve" xmlns:serif="http://www.serif.com/" style="fill-rule:evenodd;clip-rule:evenodd;stroke-linejoin:round;stroke-miterlimit:2;"><path d="M379.419,20.581l-104.105,0c-30.928,0 -56,25.072 -56,56l0,104.105l104.105,0c30.928,0 56,-25.072 56,-56l0,-104.105Z" style="fill:#75c32c;"/><path d="M180.686,219.314l-104.105,0c-30.928,0 -56,25.072 -56,56l0,104.105l104.105,0c30.928,0 56,-25.072 56,-56l0,-104.105Z" style="fill:#75c32c;"/><path d="M20,20l0,104.105c0,30.928 25.072,56 56,56l104.105,0l0,-104.105c0,-30.928 -25.072,-56 -56,-56l-104.105,0Z" style="fill:#75c32c;"/><path d="M380,380l-104.105,0c-30.928,0 -56,-25.072 -56,-56l0,-104.105l104.105,0c30.928,0 56,25.072 56,56l0,104.105Z" style="fill:#75c32c;"/></svg>