<svg viewBox="0 0 1100 737" fill="none" xmlns="http://www.w3.org/2000/svg">
<path d="M1040.29 280.69H1061V278.84H1043V278.78L1061 270.86V268.36H1040.29V270.22H1058.29V270.28L1040.29 278.2V280.69ZM1050.64 295.86C1044.52 295.86 1041.51 294.35 1041.51 291.14C1041.51 287.93 1044.44 286.35 1050.64 286.35C1056.84 286.35 1059.78 287.89 1059.78 291.11C1059.78 294.33 1056.88 295.86 1050.64 295.86V295.86ZM1039.94 291.11C1039.94 295.52 1043.45 297.72 1050.64 297.72C1057.83 297.72 1061.35 295.52 1061.35 291.11C1061.35 286.7 1057.81 284.49 1050.64 284.49C1043.47 284.49 1039.94 286.73 1039.94 291.11ZM1040.29 303.49H1061V301.64H1040.29V303.49ZM1040.29 318.66H1041.85V313.33H1061V311.47H1041.85V306.13H1040.29V318.66ZM1039.94 326.55C1039.94 330.96 1043.45 333.17 1050.64 333.17C1057.83 333.17 1061.35 330.96 1061.35 326.55C1061.35 322.84 1058.8 320.66 1053.98 320.4V322.26C1057.81 322.49 1059.78 324.03 1059.78 326.55C1059.78 329.74 1056.88 331.31 1050.64 331.31C1044.4 331.31 1041.51 329.74 1041.51 326.55C1041.51 324.09 1043.25 322.49 1046.32 322.46V320.61C1042.32 320.61 1039.94 322.87 1039.94 326.55V326.55ZM1040.29 346.6H1061V336.07H1059.43V344.74H1051V336.88H1049.44V344.74H1041.89V336.33H1040.33L1040.29 346.6ZM1040.29 359.68H1061V349.24H1059.43V357.82H1040.29V359.68ZM1040.29 372.76H1061V362.32H1059.43V370.9H1040.29V372.76ZM1050.64 387.93C1044.52 387.93 1041.51 386.42 1041.51 383.2C1041.51 379.98 1044.44 378.42 1050.64 378.42C1056.84 378.42 1059.78 379.96 1059.78 383.18C1059.78 386.4 1056.88 387.93 1050.64 387.93ZM1039.94 383.18C1039.94 387.58 1043.45 389.79 1050.64 389.79C1057.83 389.79 1061.35 387.58 1061.35 383.18C1061.35 378.78 1057.81 376.56 1050.64 376.56C1043.47 376.56 1039.94 378.79 1039.94 383.18ZM1039.94 398.96C1039.94 403.36 1043.45 405.57 1050.64 405.57C1057.83 405.57 1061.35 403.36 1061.35 398.96C1061.35 395.24 1058.8 393.07 1053.98 392.81V394.66C1057.81 394.89 1059.78 396.43 1059.78 398.96C1059.78 402.15 1056.88 403.71 1050.64 403.71C1044.4 403.71 1041.51 402.15 1041.51 398.96C1041.51 396.49 1043.25 394.89 1046.32 394.87V393C1042.32 393 1039.94 395.26 1039.94 398.95V398.96ZM1061.35 423.78V422.21L1039.94 415.13V416.7L1061.35 423.78ZM1040.29 448.46H1061V436.61H1057.58V444.29H1052V437.29H1048.57V444.29H1043.7V436.9H1040.28L1040.29 448.46ZM1040.29 462.62H1061V458.44H1052V451.44H1048.57V458.44H1043.7V451.04H1040.28L1040.29 462.62ZM1040.29 470.62H1061V466.45H1040.29V470.62ZM1040.29 484.98H1061V473.42H1057.58V480.81H1040.29V484.98ZM1040.29 510.04H1061V506.21H1046.5V506.16L1061 501.05V496.3H1040.29V500.13H1054.47V500.19L1040.29 505.24V510.04ZM1040.29 518.04H1061V513.86H1040.29V518.04ZM1050.64 531.35C1045.48 531.35 1042.96 531.06 1042.96 528.48C1042.96 525.9 1045.48 525.61 1050.64 525.61C1055.8 525.61 1058.33 525.87 1058.33 528.48C1058.33 531.09 1055.87 531.35 1050.64 531.35ZM1039.88 528.48C1039.88 534.86 1044.55 535.48 1050.64 535.48C1056.73 535.48 1061.41 534.78 1061.41 528.48C1061.41 522.18 1056.79 521.48 1050.64 521.48C1044.49 521.48 1039.88 522.18 1039.88 528.48ZM1040.29 542.72H1055.29C1057.58 542.72 1058.36 543.25 1058.36 544.58C1058.36 545.91 1057.75 546.44 1055.11 546.44H1054.47V550.27H1055.32C1059.87 550.27 1061.44 548.15 1061.44 544.78C1061.44 540.29 1059.32 538.55 1055.32 538.55H1040.32L1040.29 542.72Z" fill="#1D1E1B"/>
</svg>
